<svg id="Layer_1" data-name="Layer 1" xmlns="http://www.w3.org/2000/svg" viewBox="0 0 1668.94 1004.58"><defs><style>.cls-1,.cls-4,.cls-5,.cls-6,.cls-8,.cls-9{opacity:0.49;}.cls-2,.cls-6{fill:#fff;}.cls-3,.cls-4,.cls-5,.cls-7,.cls-9{fill:#2c53d3;}.cls-4,.cls-9{font-size:60px;}.cls-4,.cls-5{font-family:MyriadPro-Regular, Myriad Pro;}.cls-5{font-size:30.01px;}.cls-6,.cls-7,.cls-8{stroke:#2c53d3;stroke-miterlimit:10;stroke-width:4px;}.cls-8{fill:none;}.cls-9{font-family:Benguiat-Medium, ITC Benguiat;font-weight:500;}</style></defs><title>background</title><g class="cls-1"><path class="cls-2" d="M472.77,1035.09a32,32,0,0,1-28.87-18.32l-207-440a31.88,31.88,0,0,1,15.28-42.43L601.68,370a31.51,31.51,0,0,1,13.55-3,32,32,0,0,1,28.87,18.32l207,440a31.93,31.93,0,0,1-15.28,42.43L486.32,1032.05a31.65,31.65,0,0,1-13.54,3Z" transform="translate(-231.87 -32.51)"/><path class="cls-3" d="M615.23,368.91a30,30,0,0,1,27.06,17.17l207,440A29.9,29.9,0,0,1,835,865.82L485.47,1030.24a29.63,29.63,0,0,1-12.7,2.85,30,30,0,0,1-27.06-17.17l-207-440A29.93,29.93,0,0,1,253,536.18L602.53,371.76a29.63,29.63,0,0,1,12.7-2.85m0-4a33.83,33.83,0,0,0-14.41,3.23L251.34,532.56a33.88,33.88,0,0,0-16.24,45.09l207,440a33.87,33.87,0,0,0,45.09,16.24L836.66,869.44a33.88,33.88,0,0,0,16.24-45.09l-207-440a33.9,33.9,0,0,0-30.68-19.47Z" transform="translate(-231.87 -32.51)"/></g><g class="cls-1"><rect class="cls-2" x="281.93" y="491.67" width="367" height="87" transform="translate(-415.41 216.54) rotate(-25.2)"/><path class="cls-3" d="M612,420.35l35.33,75.11L318.87,650l-35.34-75.11L612,420.35m1.91-5.32L278.21,573,317,655.31l335.7-157.94L613.91,415Z" transform="translate(-231.87 -32.51)"/></g><g class="cls-1"><rect class="cls-2" x="391.55" y="615.17" width="367" height="306" transform="translate(-504.17 285.37) rotate(-25.2)"/><path class="cls-3" d="M675,554.27,803.56,827.54,475.1,982.07,346.54,708.8,675,554.27m1.92-5.32L341.21,706.89l132,280.5L808.89,829.46,676.92,549Z" transform="translate(-231.87 -32.51)"/></g><g class="cls-1"><rect class="cls-2" x="622.01" y="582.24" width="62" height="62" transform="translate(-430.8 303.82) rotate(-25.2)"/><path class="cls-3" d="M666.91,574.66l24.69,52.48-52.48,24.69-24.69-52.48,52.48-24.69m1.92-5.32L609.1,597.43l28.1,59.72,59.72-28.09-28.09-59.72Z" transform="translate(-231.87 -32.51)"/></g><g class="cls-1"><rect class="cls-2" x="540.58" y="620.56" width="62" height="62" transform="translate(-454.86 272.8) rotate(-25.2)"/><path class="cls-3" d="M585.47,613l24.69,52.48-52.48,24.69L533,637.66,585.47,613m1.92-5.32-59.72,28.09,28.09,59.73,59.72-28.1-28.09-59.72Z" transform="translate(-231.87 -32.51)"/></g><g class="cls-1"><rect class="cls-2" x="453.71" y="661.42" width="62" height="62" transform="translate(-480.52 239.7) rotate(-25.2)"/><path class="cls-3" d="M498.6,653.84l24.7,52.48L470.81,731l-24.69-52.48,52.48-24.69m1.92-5.32L440.8,676.61l28.1,59.72,59.72-28.09-28.1-59.72Z" transform="translate(-231.87 -32.51)"/></g><g class="cls-1"><rect class="cls-2" x="372.27" y="699.74" width="62" height="62" transform="translate(-504.58 208.68) rotate(-25.2)"/><path class="cls-3" d="M417.17,692.15l24.69,52.48-52.48,24.69-24.7-52.48,52.49-24.69m1.91-5.32-59.72,28.1,28.1,59.72,59.72-28.1-28.1-59.72Z" transform="translate(-231.87 -32.51)"/></g><g class="cls-1"><rect class="cls-2" x="659.9" y="662.78" width="62" height="62" transform="translate(-461.48 327.61) rotate(-25.2)"/><path class="cls-3" d="M704.8,655.19l24.69,52.48L677,732.36l-24.7-52.48,52.49-24.69m1.91-5.32L647,678l28.1,59.73,59.72-28.1-28.1-59.72Z" transform="translate(-231.87 -32.51)"/></g><g class="cls-1"><rect class="cls-2" x="694.44" y="733.84" width="62" height="62" transform="translate(-488.45 349.07) rotate(-25.2)"/><path class="cls-3" d="M739.33,726.25,764,778.73l-52.48,24.69-24.69-52.48,52.48-24.69m1.92-5.32L681.53,749l28.09,59.72,59.72-28.09-28.09-59.72Z" transform="translate(-231.87 -32.51)"/></g><g class="cls-1"><rect class="cls-2" x="613" y="772.15" width="62" height="62" transform="translate(-512.5 318.04) rotate(-25.19)"/><path class="cls-3" d="M657.89,764.56,682.58,817,630.1,841.73l-24.69-52.48,52.48-24.69m1.92-5.32-59.72,28.1,28.1,59.72L687.91,819l-28.1-59.72Z" transform="translate(-231.87 -32.51)"/></g><g class="cls-1"><rect class="cls-2" x="526.13" y="813.02" width="62" height="62" transform="translate(-538.17 284.96) rotate(-25.2)"/><path class="cls-3" d="M571,805.43l24.69,52.48L543.24,882.6l-24.69-52.48L571,805.43m1.91-5.32L513.22,828.2l28.1,59.72L601,859.83l-28.1-59.72Z" transform="translate(-231.87 -32.51)"/></g><g class="cls-1"><rect class="cls-2" x="444.69" y="851.33" width="62" height="62" transform="translate(-562.22 253.92) rotate(-25.19)"/><path class="cls-3" d="M489.59,843.74l24.69,52.48-52.48,24.7-24.69-52.49,52.48-24.69m1.92-5.32-59.72,28.1,28.09,59.72,59.72-28.1-28.09-59.72Z" transform="translate(-231.87 -32.51)"/></g><g class="cls-1"><rect class="cls-2" x="579.37" y="700.66" width="62" height="62" transform="translate(-485.27 296.92) rotate(-25.19)"/><path class="cls-3" d="M624.26,693.08,649,745.56l-52.48,24.69-24.69-52.48,52.48-24.69m1.92-5.32-59.72,28.09,28.1,59.72,59.72-28.09-28.1-59.72Z" transform="translate(-231.87 -32.51)"/></g><g class="cls-1"><rect class="cls-2" x="492.5" y="741.53" width="62" height="62" transform="translate(-510.93 263.84) rotate(-25.2)"/><path class="cls-3" d="M537.4,734l24.69,52.48-52.48,24.69-24.7-52.48L537.4,734m1.91-5.33-59.72,28.1,28.1,59.72,59.72-28.1-28.1-59.72Z" transform="translate(-231.87 -32.51)"/></g><g class="cls-1"><rect class="cls-2" x="411.06" y="779.84" width="62" height="62" transform="translate(-534.99 232.81) rotate(-25.19)"/><path class="cls-3" d="M456,772.26l24.69,52.48-52.48,24.69L403.48,797,456,772.26m1.92-5.32L398.15,795l28.1,59.72L486,826.66l-28.09-59.72Z" transform="translate(-231.87 -32.51)"/></g><text class="cls-4" transform="matrix(-0.9, 0.43, 0.43, 0.9, 385.7, 449.38)">153.5353</text><g class="cls-1"><path class="cls-2" d="M1777.8,362.5a31.58,31.58,0,0,1-13.55-3l-159.06-74.83a31.93,31.93,0,0,1-15.28-42.43L1679,52.83a31.87,31.87,0,0,1,42.43-15.28l159.06,74.83a31.93,31.93,0,0,1,15.28,42.43l-89.1,189.37A32,32,0,0,1,1777.8,362.5Z" transform="translate(-231.87 -32.51)"/><path class="cls-3" d="M1707.88,32.51v4a29.69,29.69,0,0,1,12.7,2.85l159.06,74.83A29.9,29.9,0,0,1,1894,154l-89.1,189.37a30,30,0,0,1-27.06,17.17,29.63,29.63,0,0,1-12.7-2.85L1606,282.82a29.9,29.9,0,0,1-14.32-39.77l89.09-189.37a30,30,0,0,1,27.07-17.17v-4m0,0A33.91,33.91,0,0,0,1677.19,52L1588.1,241.35a33.88,33.88,0,0,0,16.24,45.09l159.06,74.83A33.86,33.86,0,0,0,1808.48,345l89.1-189.37a33.89,33.89,0,0,0-16.24-45.08L1722.28,35.74a33.79,33.79,0,0,0-14.4-3.23Z" transform="translate(-231.87 -32.51)"/></g><g class="cls-1"><rect class="cls-2" x="1761.39" y="18.07" width="41.51" height="195.03" transform="translate(687.04 1646.47) rotate(-64.81)"/><path class="cls-3" d="M1703.7,58l172.86,81.32-16,33.94L1687.74,91.89l16-33.94m-1.91-5.32-19.38,41.18,180.1,84.73,19.37-41.18L1701.79,52.63Z" transform="translate(-231.87 -32.51)"/></g><g class="cls-1"><rect class="cls-2" x="1651.81" y="134.59" width="151.03" height="195.03" transform="translate(550.11 1663.78) rotate(-64.8)"/><path class="cls-3" d="M1672.2,124.93l172.85,81.32-62.59,133L1609.61,258l62.59-133m-1.92-5.33-66,140.28,180.1,84.73,66-140.28L1670.28,119.6Z" transform="translate(-231.87 -32.51)"/></g><g class="cls-1"><rect class="cls-2" x="1669.34" y="136.81" width="29.01" height="31.41" transform="translate(597.17 1578.74) rotate(-64.81)"/><path class="cls-3" d="M1676.77,135.37l24.8,11.66-10.65,22.63L1666.12,158l10.65-22.62m-1.92-5.32-14,29.86,32,15.07,14.05-29.86-32-15.07Z" transform="translate(-231.87 -32.51)"/></g><g class="cls-1"><rect class="cls-2" x="1713.03" y="157.37" width="29.01" height="31.41" transform="translate(603.66 1630.07) rotate(-64.81)"/><path class="cls-3" d="M1720.46,155.92l24.8,11.67-10.65,22.63-24.8-11.67,10.65-22.63m-1.92-5.32-14,29.87,32,15.07,14-29.87-32-15.07Z" transform="translate(-231.87 -32.51)"/></g><g class="cls-1"><rect class="cls-2" x="1759.63" y="179.29" width="29.01" height="31.41" transform="translate(610.58 1684.82) rotate(-64.81)"/><path class="cls-3" d="M1767.06,177.85l24.8,11.66-10.65,22.63-24.8-11.67,10.65-22.62m-1.92-5.33-14.05,29.87,32,15.07,14-29.86-32-15.08Z" transform="translate(-231.87 -32.51)"/></g><g class="cls-1"><rect class="cls-2" x="1803.32" y="199.84" width="29.01" height="31.41" transform="translate(617.08 1736.17) rotate(-64.81)"/><path class="cls-3" d="M1810.75,198.4l24.8,11.67-10.65,22.62L1800.1,221l10.65-22.63m-1.92-5.32-14,29.86,32,15.07,14-29.86-32-15.07Z" transform="translate(-231.87 -32.51)"/></g><g class="cls-1"><rect class="cls-2" x="1650.4" y="177.09" width="29.01" height="31.41" transform="translate(549.84 1584.72) rotate(-64.81)"/><path class="cls-3" d="M1657.82,175.64l24.8,11.67L1672,209.94l-24.8-11.67,10.64-22.63m-1.91-5.32-14.06,29.87,32,15.07,14-29.87-32-15.07Z" transform="translate(-231.87 -32.51)"/></g><g class="cls-1"><rect class="cls-2" x="1633.09" y="212.61" width="29.01" height="31.41" transform="translate(507.77 1589.46) rotate(-64.81)"/><path class="cls-3" d="M1640.52,211.16l24.8,11.67-10.65,22.63-24.8-11.67,10.65-22.63m-1.92-5.32-14,29.87,32,15.07,14.05-29.87-32-15.07Z" transform="translate(-231.87 -32.51)"/></g><g class="cls-1"><rect class="cls-2" x="1676.78" y="233.16" width="29.01" height="31.41" transform="translate(514.25 1640.79) rotate(-64.81)"/><path class="cls-3" d="M1684.21,231.72l24.8,11.66L1698.36,266l-24.8-11.67,10.65-22.62m-1.92-5.33-14,29.87,32,15.07,14-29.86-32-15.08Z" transform="translate(-231.87 -32.51)"/></g><g class="cls-1"><rect class="cls-2" x="1723.38" y="255.08" width="29.01" height="31.41" transform="translate(521.2 1695.57) rotate(-64.81)"/><path class="cls-3" d="M1730.81,253.64l24.8,11.67L1745,287.93l-24.8-11.66,10.65-22.63m-1.92-5.32-14.05,29.86,32,15.08,14-29.87-32-15.07Z" transform="translate(-231.87 -32.51)"/></g><g class="cls-1"><rect class="cls-2" x="1767.07" y="275.64" width="29.01" height="31.41" transform="translate(527.69 1746.9) rotate(-64.81)"/><path class="cls-3" d="M1774.49,274.19l24.8,11.67-10.64,22.63-24.8-11.67,10.64-22.63m-1.91-5.32-14,29.87,32,15.07,14-29.87-32-15.07Z" transform="translate(-231.87 -32.51)"/></g><g class="cls-1"><rect class="cls-2" x="1693.6" y="197.41" width="29.01" height="31.41" transform="translate(556.26 1635.49) rotate(-64.81)"/><path class="cls-3" d="M1701,196l24.8,11.66-10.64,22.63-24.8-11.67L1701,196m-1.91-5.33-14,29.87,32,15.07,14.05-29.86-32-15.08Z" transform="translate(-231.87 -32.51)"/></g><g class="cls-1"><rect class="cls-2" x="1740.2" y="219.33" width="29.01" height="31.41" transform="translate(563.19 1690.24) rotate(-64.81)"/><path class="cls-3" d="M1747.63,217.89l24.79,11.67-10.64,22.62L1737,240.52l10.65-22.63m-1.92-5.32-14,29.86,32,15.08,14-29.87-32-15.07Z" transform="translate(-231.87 -32.51)"/></g><g class="cls-1"><rect class="cls-2" x="1783.89" y="239.89" width="29.01" height="31.41" transform="translate(569.68 1741.58) rotate(-64.81)"/><path class="cls-3" d="M1791.31,238.44l24.8,11.67-10.64,22.63-24.8-11.67,10.64-22.63m-1.91-5.32L1775.35,263l32,15.07,14-29.87-32-15.07Z" transform="translate(-231.87 -32.51)"/></g><text class="cls-5" transform="matrix(0.97, 0.46, -0.43, 0.9, 1468.92, 53.95)">153.5353</text><path class="cls-6" d="M1420,504.5c0,117.91-95.59,213.5-213.5,213.5S993,622.41,993,504.5,1089.09,291,1207,291,1420,386.59,1420,504.5Z" transform="translate(-231.87 -32.51)"/><ellipse class="cls-7" cx="974.63" cy="470.49" rx="17.5" ry="17"/><line class="cls-8" x1="974.13" y1="341.49" x2="974.13" y2="470.49"/><line class="cls-8" x1="1057.13" y1="472.49" x2="974.13" y2="470.49"/><rect class="cls-6" x="18.13" y="34.49" width="331" height="132" rx="32.79"/><text class="cls-9" transform="translate(58.78 123.17)">4:00 PM</text><path class="cls-8" d="M1486,970l332,4c1.74-5.42,8.84-29.65-4-54-9.84-18.65-31.3-37.23-52-35-15.93,1.72-24.7,15-31,11-5.4-3.47-.69-14.37-2-28-2.89-30.09-32.82-49.74-38-53-23-14.46-55.66-19.55-77.52-8.08-4.61,2.42-11.48,7-13.48,5.08-2.8-2.72,8.82-13.59,11-27,3.56-21.9-18.13-50.42-46-60-1.89-.65-40.76-13.29-67,13-16.78,16.82-23.61,44.77-15.27,60.75,1.69,3.22,4.72,7.36,3.27,9.25-2.53,3.31-14.62-5.54-29-8-17.79-3-39.64,3.56-54,19-14.93,16-18.76,38.38-15,52,1.88,6.79,3.86,14,10.08,19.7,2.78,2.56,5.06,3.59,4.92,5.3-.31,4-12.91,4.54-25,8-4.74,1.36-35.53,10.17-44,33-1.61,4.35-4,13.48,0,27Z" transform="translate(-231.87 -32.51)"/></svg>