<svg xmlns="http://www.w3.org/2000/svg" viewBox="0 0 515.09 285.74"><defs><style>.cls-1,.cls-2,.cls-3{fill:#2c53d3;}.cls-1{stroke:#2c53d3;}.cls-1,.cls-2,.cls-4{stroke-miterlimit:10;}.cls-2,.cls-4{stroke:#e93035;}.cls-3{font-size:250px;font-family:AmazoneBT-Regular, Amazone BT;}</style></defs><title>logo</title><g id="Layer_2" data-name="Layer 2"><path class="cls-1" d="M356,109c-49.27,24.69-70.11,53.23-80,75-9.16,20.18-9.17,35.09-23,57-16.91,26.8-40.72,42.21-58,51h80.5V200.5H356Z" transform="translate(-192.91 -77.75)"/><rect class="cls-2" x="92.09" y="129.25" width="71" height="85"/><text class="cls-3" transform="translate(154.09 212.5)">lka</text><rect class="cls-2" x="101.09" y="137.75" width="56" height="18.5"/><rect class="cls-2" x="101.09" y="163.84" width="56" height="36.5"/><polygon class="cls-2" points="155.43 199.04 115.43 199.04 103.02 199.04 103.02 165.46 115.43 165.46 155.43 165.46 155.43 199.04"/><line class="cls-2" x1="113.78" y1="165.46" x2="113.78" y2="199.04"/><line class="cls-2" x1="125.09" y1="165.46" x2="125.09" y2="199.04"/><line class="cls-2" x1="136.95" y1="165.46" x2="136.95" y2="199.04"/><line class="cls-4" x1="146.33" y1="165.46" x2="146.33" y2="199.04"/><line class="cls-2" x1="103.02" y1="171.74" x2="155.43" y2="171.74"/><line class="cls-2" x1="103.02" y1="178.67" x2="155.43" y2="178.67"/><line class="cls-2" x1="103.02" y1="184.96" x2="155.43" y2="184.96"/><line class="cls-2" x1="103.02" y1="191.89" x2="155.43" y2="191.89"/></g></svg>