<svg id="Layer_1" data-name="Layer 1" xmlns="http://www.w3.org/2000/svg" viewBox="0 0 63.54 54.15"><defs><style>.cls-1{fill:#2c53d3;stroke:#2c53d3;stroke-miterlimit:10;}</style></defs><title>pi</title><polygon class="cls-1" points="0.5 14.95 0.5 0.5 63.04 0.5 63.04 14.95 45.78 14.95 45.78 40.18 35.75 40.18 35.75 14.95 21.44 14.95 21.44 52.12 11.71 52.12 11.71 14.95 0.5 14.95"/><path class="cls-1" d="M61.15,58.84a4.27,4.27,0,0,0,3.73,3.35,4.4,4.4,0,0,0,4.24-4.72c2.81-1.06,5.73-.76,7.22.88,2.57,2.86-.62,8.23-1,8.78a11.28,11.28,0,0,1-3.32,3.47c-4.72,3.18-13.22,3.64-17.6-1.23-2.81-3.13-4.45-9-1.8-11.28C54.45,56.57,57.89,57,61.15,58.84Z" transform="translate(-15.37 -19.36)"/></svg>