<svg id="Layer_1" data-name="Layer 1" xmlns="http://www.w3.org/2000/svg" viewBox="0 0 71.35 71.35"><defs><style>.cls-1{fill:#2c53d3;stroke:#2c53d3;}.cls-1,.cls-2{stroke-miterlimit:10;}.cls-2{fill:#fff;stroke:#fff;}</style></defs><title>twitter</title><circle class="cls-1" cx="35.68" cy="35.68" r="35.18"/><path class="cls-2" d="M26.05,66.47c.14,1.34,17.18,3.5,29.05-4.57,11.65-7.93,11-20.29,11.07-22.13l4-2.9c-2,.4-1-.15-3,.25a7.6,7.6,0,0,0,3.24-2.21c.45-.54,2.3-2.58,2.07-2.84s-1.89,1.28-3.1,1.66a15.07,15.07,0,0,1-3.54.59h0s-.69,0-1.18-1.28c-1.14-3-5.91-8.78-10.62-7.43a9.46,9.46,0,0,0-6.49,6.64,9.63,9.63,0,0,0,.44,5.9,15.5,15.5,0,0,1-18.14-3.1,8.32,8.32,0,0,0-.15,2.66c.44,3.79,3.57,6,4.28,6.49a4.56,4.56,0,0,1-2.8.44,4.46,4.46,0,0,1-2.51-1.33,7.15,7.15,0,0,0,.59,2.81c1.55,3.45,5.5,4.31,6.05,4.42a4.75,4.75,0,0,1-1.92,1,4.89,4.89,0,0,1-3-.15,6.6,6.6,0,0,0,1.18,2.22,8.44,8.44,0,0,0,6.82,2.71,8,8,0,0,1-.92,3.78C34.71,65.24,26,65.55,26.05,66.47Z" transform="translate(-11.85 -11.84)"/></svg>